<svg t="1728508744118" class="icon" viewBox="0 0 1024 1024" version="1.1" xmlns="http://www.w3.org/2000/svg" p-id="4210" width="128" height="128"><path d="M512 0a512 512 0 1 0 512 512A512.554667 512.554667 0 0 0 512 0z m368.938667 298.666667h-137.429334a839.424 839.424 0 0 0-120.362666-198.144A427.989333 427.989333 0 0 1 880.938667 298.666667zM704 512a435.626667 435.626667 0 0 1-20.309333 128H340.309333a435.669333 435.669333 0 0 1-20.309333-128 435.626667 435.626667 0 0 1 20.309333-128h343.381334c13.098667 41.386667 19.968 84.565333 20.309333 128z m-329.472 213.333333h274.944A836.906667 836.906667 0 0 1 512 921.088 835.072 835.072 0 0 1 374.528 725.333333z m0-426.666666A836.906667 836.906667 0 0 1 512 102.912 834.986667 834.986667 0 0 1 649.472 298.666667H374.528zM401.066667 100.522667A839.509333 839.509333 0 0 0 280.490667 298.666667H143.061333A427.946667 427.946667 0 0 1 401.066667 100.522667zM105.002667 384H251.733333c-11.093333 41.813333-16.810667 84.778667-17.066666 128 0.256 43.221333 5.973333 86.186667 17.066666 128H105.002667a426.325333 426.325333 0 0 1 0-256z m38.058666 341.333333h137.429334A839.509333 839.509333 0 0 0 401.066667 923.477333 427.989333 427.989333 0 0 1 143.061333 725.333333z m480.085334 198.144c49.066667-60.16 89.6-126.848 120.362666-198.144h137.429334a427.989333 427.989333 0 0 1-257.792 198.144zM918.997333 640H772.266667c11.093333-41.813333 16.810667-84.778667 17.066666-128a512.853333 512.853333 0 0 0-17.066666-128h146.645333a426.282667 426.282667 0 0 1 0 256h0.085333z" fill="#ffffff" p-id="4211"></path></svg>